<?xml version="1.0" standalone="no"?>
<!DOCTYPE svg PUBLIC "-//W3C//DTD SVG 20010904//EN"
 "http://www.w3.org/TR/2001/REC-SVG-20010904/DTD/svg10.dtd">
<svg version="1.0" xmlns="http://www.w3.org/2000/svg"
 width="1600.000000pt" height="1600.000000pt" viewBox="0 0 1600.000000 1600.000000"
 preserveAspectRatio="xMidYMid meet">

<g transform="translate(0.000000,1600.000000) scale(0.100000,-0.100000)"
fill="#000000" stroke="none">
<path d="M2500 13323 c-174 -27 -289 -62 -423 -129 -133 -65 -222 -128 -334
-237 -207 -201 -330 -429 -390 -723 -17 -85 -18 -277 -18 -4229 0 -3897 1
-4145 17 -4232 55 -288 183 -528 387 -726 152 -148 311 -244 514 -312 211 -71
-292 -65 5747 -65 6039 0 5536 -6 5747 65 214 72 368 168 528 329 203 205 319
425 373 709 16 87 17 335 17 4227 0 3878 -1 4141 -17 4226 -39 206 -127 412
-242 565 -79 104 -229 249 -324 313 -137 91 -302 162 -472 203 -72 17 -310 18
-5580 19 -3028 1 -5516 0 -5530 -3z m10168 -1335 c-3 -9 -2653 -1894 -4420
-3145 l-248 -175 -247 175 c-1759 1244 -4418 3136 -4421 3145 -3 9 1098 12
4668 12 3567 0 4671 -3 4668 -12z m-8522 -2586 c3023 -2146 3850 -2732 3854
-2732 3 0 570 401 1260 891 690 490 1422 1009 1625 1153 204 144 683 484 1064
755 382 271 701 495 708 498 11 4 13 -534 13 -2981 l0 -2986 -4670 0 -4670 0
0 2986 c0 2462 2 2985 13 2981 7 -3 368 -257 803 -565z"/>
</g>
</svg>
