<?xml version="1.0" standalone="no"?>
<!DOCTYPE svg PUBLIC "-//W3C//DTD SVG 20010904//EN"
 "http://www.w3.org/TR/2001/REC-SVG-20010904/DTD/svg10.dtd">
<svg version="1.0" xmlns="http://www.w3.org/2000/svg"
 width="3840.000000pt" height="2160.000000pt" viewBox="0 0 3840.000000 2160.000000"
 preserveAspectRatio="xMidYMid meet">

<g transform="translate(0.000000,2160.000000) scale(0.100000,-0.100000)"
fill="#000000" stroke="none">
<path d="M13582 21320 c-199 -53 -358 -203 -417 -395 -17 -55 -413 -2546
-1271 -7990 -1142 -7255 -1245 -7917 -1241 -8000 3 -60 12 -108 26 -144 58
-144 179 -254 326 -297 56 -16 182 -17 1920 -19 1023 0 1870 3 1882 7 19 6 21
4 16 -25 -2 -18 -132 -844 -289 -1836 -179 -1140 -284 -1829 -284 -1875 0
-223 149 -414 365 -471 52 -13 260 -15 1715 -15 1644 0 1656 0 1730 21 202 56
363 209 420 399 11 36 209 1266 440 2735 232 1469 428 2695 436 2725 46 161
168 308 315 378 46 22 109 46 139 53 43 10 296 13 1150 14 970 2 1208 5 1340
20 19 2 69 7 110 10 224 19 590 84 875 156 207 53 587 179 790 263 1677 697
2946 2119 3450 3865 115 400 194 843 212 1181 3 72 10 133 15 136 5 3 3 13 -4
22 -10 12 -10 14 0 8 9 -6 12 25 12 139 0 114 -3 145 -12 139 -8 -5 -7 0 2 11
8 10 10 16 4 12 -8 -4 -12 16 -13 66 -2 121 -30 371 -61 551 -140 819 -499
1576 -1051 2216 -129 150 -385 404 -524 521 -247 208 -552 417 -826 568 l-76
41 -6 238 c-12 495 -100 956 -274 1426 -482 1303 -1507 2309 -2877 2822 -367
138 -871 260 -1241 300 -38 4 -72 8 -75 9 -3 1 -50 5 -105 9 -55 5 -109 11
-120 14 -11 4 -1557 8 -3435 9 -3342 2 -3417 2 -3488 -17z"/>
</g>
</svg>
