<?xml version="1.0" standalone="no"?>
<!DOCTYPE svg PUBLIC "-//W3C//DTD SVG 20010904//EN"
 "http://www.w3.org/TR/2001/REC-SVG-20010904/DTD/svg10.dtd">
<svg version="1.0" xmlns="http://www.w3.org/2000/svg"
 width="1024.000000pt" height="1024.000000pt" viewBox="0 0 1024.000000 1024.000000"
 preserveAspectRatio="xMidYMid meet">

<g transform="translate(0.000000,1024.000000) scale(0.100000,-0.100000)"
fill="#000000" stroke="none">
<path d="M4695 9999 c-1222 -105 -2428 -705 -3180 -1583 -564 -658 -938 -1420
-1104 -2251 -242 -1203 23 -2486 734 -3560 440 -666 1071 -1209 1830 -1580
1026 -500 2134 -623 3208 -355 780 195 1531 595 2107 1121 300 275 661 737
886 1134 314 556 524 1200 601 1843 22 185 25 771 5 957 -60 551 -212 1094
-434 1543 -312 632 -695 1161 -1096 1513 -770 677 -1683 1086 -2687 1204 -166
20 -703 28 -870 14z m2586 -2878 c48 -30 83 -77 100 -133 27 -88 21 -120 -391
-2055 -220 -1035 -409 -1908 -419 -1939 -23 -65 -57 -113 -103 -146 -28 -19
-45 -23 -108 -23 -127 0 -74 -35 -1015 665 -192 143 -353 260 -356 260 -4 0
-92 -82 -196 -182 -398 -386 -416 -402 -483 -435 -36 -18 -82 -35 -103 -39
l-39 -7 6 44 c3 24 24 285 46 579 22 294 43 549 45 566 6 33 -21 8 1720 1598
270 246 497 459 505 473 14 22 13 26 -4 39 -38 27 -87 17 -172 -34 -43 -27
-670 -421 -1392 -875 -722 -455 -1317 -827 -1322 -827 -5 0 -157 45 -337 101
-180 55 -447 136 -593 180 -338 103 -347 106 -388 144 -45 40 -48 95 -9 153
51 77 38 72 852 386 220 85 1199 462 2175 839 976 377 1784 687 1795 690 11 2
47 5 81 6 50 1 67 -4 105 -28z"/>
</g>
</svg>
